HIERARCHY
ROOT Hips
{
	OFFSET 0.000000 0.000000 0.000000
	CHANNELS 6 Xposition Yposition Zposition Zrotation Yrotation Xrotation 
	JOINT LHipJoint
	{
		OFFSET 0.000000 0.000000 0.000000
		CHANNELS 3 Zrotation Yrotation Xrotation
		JOINT LeftUpLeg
		{
			OFFSET 1.363060 -1.794630 0.839290
			CHANNELS 3 Zrotation Yrotation Xrotation
			JOINT LeftLeg
			{
				OFFSET 2.448110 -6.726130 0.000000
				CHANNELS 3 Zrotation Yrotation Xrotation
				JOINT LeftFoot
				{
					OFFSET 2.562200 -7.039590 0.000000
					CHANNELS 3 Zrotation Yrotation Xrotation
					JOINT LeftToeBase
					{
						OFFSET 0.157640 -0.433110 2.322550
						CHANNELS 3 Zrotation Yrotation Xrotation
						End Site
						{
							OFFSET 0.000000 0.000000 0.000000
						}
					}
				}
			}
		}
	}
	JOINT RHipJoint
	{
		OFFSET 0.000000 0.000000 0.000000
		CHANNELS 3 Zrotation Yrotation Xrotation
		JOINT RightUpLeg
		{
			OFFSET -1.305520 -1.794630 0.839290
			CHANNELS 3 Zrotation Yrotation Xrotation
			JOINT RightLeg
			{
				OFFSET -2.542530 -6.985550 0.000000
				CHANNELS 3 Zrotation Yrotation Xrotation
				JOINT RightFoot
				{
					OFFSET -2.568260 -7.056230 0.000000
					CHANNELS 3 Zrotation Yrotation Xrotation
					JOINT RightToeBase
					{
						OFFSET -0.164730 -0.452590 2.363150
						CHANNELS 3 Zrotation Yrotation Xrotation
						End Site
						{
							OFFSET 0.000000 0.000000 0.000000
						}
					}
				}
			}
		}
	}
	JOINT LowerBack
	{
		OFFSET 0.000000 0.000000 0.000000
		CHANNELS 3 Zrotation Yrotation Xrotation
		JOINT Spine
		{
			OFFSET 0.028270 2.035590 -0.193380
			CHANNELS 3 Zrotation Yrotation Xrotation
			JOINT Spine1
			{
				OFFSET 0.056720 2.048850 -0.042750
				CHANNELS 3 Zrotation Yrotation Xrotation
				JOINT Neck
				{
					OFFSET 0.000000 0.000000 0.000000
					CHANNELS 3 Zrotation Yrotation Xrotation
					JOINT Neck1
					{
						OFFSET -0.054170 1.746240 0.172020
						CHANNELS 3 Zrotation Yrotation Xrotation
						JOINT Head
						{
							OFFSET 0.104070 1.761360 -0.123970
							CHANNELS 3 Zrotation Yrotation Xrotation
							End Site
							{
								OFFSET 0.000000 0.000000 0.000000
							}
						}
					}
				}
				JOINT LeftShoulder
				{
					OFFSET 0.000000 0.000000 0.000000
					CHANNELS 3 Zrotation Yrotation Xrotation
					JOINT LeftArm
					{
						OFFSET 3.362410 1.200890 -0.311210
						CHANNELS 3 Zrotation Yrotation Xrotation
						JOINT LeftForeArm
						{
							OFFSET 4.983000 -0.000000 -0.000000
							CHANNELS 3 Zrotation Yrotation Xrotation
							JOINT LeftHand
							{
								OFFSET 3.483560 -0.000000 -0.000000
								CHANNELS 3 Zrotation Yrotation Xrotation
								JOINT LeftFingerBase
								{
									OFFSET 0.000000 0.000000 0.000000
									CHANNELS 3 Zrotation Yrotation Xrotation
									JOINT LeftHandIndex1
									{
										OFFSET 0.715260 -0.000000 -0.000000
										CHANNELS 3 Zrotation Yrotation Xrotation
										End Site
										{
											OFFSET 0.000000 0.000000 0.000000
										}
									}
								}
								JOINT LThumb
								{
									OFFSET 0.000000 0.000000 0.000000
									CHANNELS 3 Zrotation Yrotation Xrotation
									End Site
									{
										OFFSET 0.000000 0.000000 0.000000
									}
								}
							}
						}
					}
				}
				JOINT RightShoulder
				{
					OFFSET 0.000000 0.000000 0.000000
					CHANNELS 3 Zrotation Yrotation Xrotation
					JOINT RightArm
					{
						OFFSET -3.136600 1.374050 -0.404650
						CHANNELS 3 Zrotation Yrotation Xrotation
						JOINT RightForeArm
						{
							OFFSET -5.241900 -0.000000 -0.000000
							CHANNELS 3 Zrotation Yrotation Xrotation
							JOINT RightHand
							{
								OFFSET -3.444170 -0.000000 -0.000000
								CHANNELS 3 Zrotation Yrotation Xrotation
								JOINT RightFingerBase
								{
									OFFSET 0.000000 0.000000 0.000000
									CHANNELS 3 Zrotation Yrotation Xrotation
									JOINT RightHandIndex1
									{
										OFFSET -0.622530 -0.000000 -0.000000
										CHANNELS 3 Zrotation Yrotation Xrotation
										End Site
										{
											OFFSET 0.000000 0.000000 0.000000
										}
									}
								}
								JOINT RThumb
								{
									OFFSET 0.000000 0.000000 0.000000
									CHANNELS 3 Zrotation Yrotation Xrotation
									End Site
									{
										OFFSET 0.000000 0.000000 0.000000
									}
								}
							}
						}
					}
				}
			}
		}
	}
}
MOTION
Frames: 7
Frame Time: 0.008333
-9.157055 17.902449 -0.577569 137.325366 84.277415 164.355113 -8.693044 1.963843 4.430548 -14.438368 -11.086945 -34.305175 -1.727856 0.091045 22.980521 2.483909 13.147879 -4.550433 1.341500 0.000001 -28.636100 11.010541 -3.335282 -0.195283 8.249234 -7.995864 -10.012630 1.014092 -1.090596 15.390121 -0.187388 1.438022 24.508603 0.627700 -0.000000 -70.575199 -5.598713 0.959926 -3.767484 -0.445154 1.435981 -4.179088 0.591450 1.266645 -2.439839 -3.200687 0.400388 -10.051528 0.806144 0.112160 -0.698127 0.000000 0.000000 0.000000 16.515332 6.136516 2.973360 109.473447 -43.473633 55.890473 -3.422739 -44.836534 -0.027111 -6.252039 43.461935 -2.662832 0.143803 -1.601768 0.000000 0.000000 0.000000 0.000000 0.000000 0.000000 0.000000 -14.325936 5.869825 1.690254 0.849218 70.326780 -5.664576 1.236255 19.473391 0.021435 15.841677 -0.461127 -0.055345 -0.282400 -0.068452 0.000000 0.000000 0.000000 0.000000 0.000000 0.000000 0.000000 
-8.894038 17.951281 -0.581246 139.433281 84.738259 166.512918 -8.650259 1.896300 4.614203 -14.593220 -11.252844 -34.414573 -1.918141 -0.222636 19.079538 2.306847 12.444903 -3.259908 1.633400 0.000000 -29.905400 10.954822 -3.405313 -0.358038 8.353130 -8.353467 -9.713701 0.975050 -1.156001 15.972272 -0.256289 1.295091 25.512108 0.609900 0.000001 -70.234000 -5.520973 0.985461 -3.750800 -0.401794 1.458599 -4.194511 0.717785 1.292011 -2.488462 -3.224055 0.196715 -10.204375 0.824777 0.116903 -0.746004 0.000000 0.000000 0.000000 16.600180 6.939408 2.541832 110.946790 -45.496007 57.293568 -3.234972 -44.393478 -0.041849 -2.933551 42.493158 -1.208765 0.028829 -1.597206 0.000000 0.000000 0.000000 0.000000 0.000000 0.000000 0.000000 -14.393061 5.713487 1.975902 -0.230006 70.344960 -4.576607 1.408472 20.927853 0.019723 18.390441 -1.830501 -0.296519 -0.326584 -0.027808 0.000000 0.000000 0.000000 0.000000 0.000000 0.000000 0.000000 
-8.632700 17.985359 -0.586567 142.328414 85.181569 169.403818 -8.654752 1.819622 4.736250 -14.813600 -11.145935 -34.592434 -2.111424 -0.513781 15.538425 2.108966 11.681915 -2.004381 1.869100 0.000000 -31.510700 10.864462 -3.478007 -0.511778 8.502903 -8.632478 -9.409518 0.931267 -1.222946 16.792955 -0.343724 0.769932 25.921130 0.361000 -0.000000 -70.038000 -5.396891 1.009040 -3.689537 -0.351416 1.475619 -4.211079 0.830998 1.314085 -2.577065 -3.235787 0.005029 -10.349077 0.844727 0.121616 -0.791683 0.000000 0.000000 0.000000 16.751065 7.679714 2.120834 112.376384 -47.520263 58.661766 -3.009862 -44.087116 -0.057089 0.514702 41.654904 0.232712 -0.098036 -1.593810 0.000000 0.000000 0.000000 0.000000 0.000000 0.000000 0.000000 -14.470809 5.580013 2.208256 -1.094602 70.349489 -4.234280 1.532011 22.260532 0.017971 20.533222 -3.203427 -0.591302 -0.361806 0.008010 0.000000 0.000000 0.000000 0.000000 0.000000 0.000000 0.000000 
-8.372930 18.005111 -0.593390 145.982601 85.567488 172.980287 -8.700902 1.741214 4.781439 -15.197989 -10.723120 -34.838724 -2.320939 -0.770351 12.445265 1.883310 10.787332 -0.822828 2.025501 0.000000 -33.503700 10.749673 -3.555122 -0.660291 8.655581 -8.889420 -9.088983 0.883125 -1.294714 17.838734 -0.443954 -0.037074 25.803707 -0.056600 0.000000 -69.915400 -5.244908 1.025883 -3.569335 -0.297777 1.483452 -4.224951 0.929276 1.329186 -2.699425 -3.234528 -0.168344 -10.483319 0.861510 0.125882 -0.834598 0.000000 0.000000 0.000000 16.963179 8.338542 1.717946 113.724861 -49.530357 59.936711 -2.762183 -43.895139 -0.072890 4.094354 40.933208 1.673975 -0.235858 -1.591563 0.000000 0.000000 0.000000 0.000000 0.000000 0.000000 0.000000 -14.532370 5.472476 2.394608 -1.818594 70.324746 -4.481418 1.613735 23.476746 0.016693 22.211704 -4.525490 -0.910787 -0.387891 0.038484 0.000000 0.000000 0.000000 0.000000 0.000000 0.000000 0.000000 
-8.114570 18.011221 -0.601632 150.261315 85.863556 177.095848 -8.778298 1.667911 4.742084 -15.819910 -9.980547 -35.144554 -2.557355 -0.984492 9.857269 1.626247 9.707429 0.256026 2.084100 0.000000 -35.859599 10.622883 -3.637102 -0.806941 8.771582 -9.171065 -8.746635 0.831986 -1.373897 19.088351 -0.552975 -1.010294 25.252997 -0.561700 0.000000 -69.830500 -5.075678 1.031613 -3.381917 -0.242893 1.478424 -4.233002 1.012346 1.333368 -2.848189 -3.222600 -0.319815 -10.605017 0.870973 0.129298 -0.874187 0.000000 0.000000 0.000000 17.217648 8.911043 1.336297 114.992739 -51.505347 61.056573 -2.505683 -43.799999 -0.088987 7.755286 40.258525 3.101001 -0.381712 -1.587746 0.000000 0.000000 0.000000 0.000000 0.000000 0.000000 0.000000 -14.557404 5.391662 2.543404 -2.514112 70.266283 -5.200201 1.658814 24.584100 0.016259 23.395629 -5.699657 -1.213073 -0.405422 0.062343 0.000000 0.000000 0.000000 0.000000 0.000000 0.000000 0.000000 
-7.857397 18.004325 -0.611326 154.880919 86.053195 -178.535890 -8.870242 1.606647 4.622989 -16.705402 -8.972701 -35.489237 -2.822527 -1.153573 7.787974 1.343283 8.442759 1.217206 2.041300 -0.000000 -38.466701 10.500629 -3.721312 -0.956957 8.813157 -9.517929 -8.386709 0.779620 -1.462863 20.524120 -0.665787 -2.027217 24.370330 -1.069300 -0.000000 -69.742600 -4.894378 1.024663 -3.126824 -0.187554 1.459350 -4.233335 1.081138 1.325011 -3.016076 -3.204049 -0.449964 -10.712023 0.870519 0.131585 -0.909793 0.000000 0.000000 0.000000 17.488443 9.391140 0.979028 116.168408 -53.423657 61.990898 -2.251418 -43.778831 -0.105069 11.440220 39.561504 4.487970 -0.532591 -1.579702 -0.000000 0.000000 0.000000 0.000000 0.000000 0.000000 0.000000 -14.534101 5.333275 2.662694 -3.296084 70.179284 -6.305807 1.672757 25.583243 0.016852 24.087837 -6.615417 -1.452356 -0.415486 0.078142 0.000000 0.000000 0.000000 0.000000 0.000000 0.000000 0.000000 
-7.601248 17.984990 -0.622504 159.539354 86.142448 -174.209919 -8.960052 1.563260 4.440034 -17.820227 -7.796967 -35.847935 -3.106396 -1.277915 6.219352 1.048495 7.047306 2.053724 1.909800 -0.000000 -41.127200 10.397487 -3.803604 -1.114719 8.756043 -9.949156 -8.018061 0.727365 -1.563022 22.124405 -0.776691 -2.986974 23.264952 -1.514000 0.000000 -69.626700 -4.697402 1.007895 -2.813159 -0.130893 1.428998 -4.225504 1.137056 1.306346 -3.195521 -3.183386 -0.563418 -10.802468 0.859176 0.132598 -0.940760 0.000000 0.000000 0.000000 17.744749 9.777249 0.648847 117.239865 -55.261512 62.735040 -2.006826 -43.811210 -0.120759 15.079668 38.770574 5.794976 -0.685347 -1.564495 -0.000000 0.000000 0.000000 0.000000 0.000000 0.000000 0.000000 -14.459486 5.289694 2.759739 -4.268512 70.077124 -7.745847 1.662144 26.465750 0.018463 24.325405 -7.181065 -1.592839 -0.419411 0.084829 0.000000 0.000000 0.000000 0.000000 0.000000 0.000000 0.000000 
